<svg width="13" height="14" viewBox="0 0 13 14" fill="none" xmlns="http://www.w3.org/2000/svg">
<path d="M6.5 0C7.29565 0 8.05849 0.3163 8.62109 0.878906C9.1837 1.44152 9.5 2.20435 9.5 3H12.5C12.7761 3 13 3.22386 13 3.5C13 3.77614 12.7761 4 12.5 4H11.5V12.5C11.5 12.8978 11.3418 13.2793 11.0605 13.5605C10.7793 13.8418 10.3978 14 10 14H3C2.60212 14 2.22071 13.8417 1.93945 13.5605C1.65812 13.2793 1.5 12.8978 1.5 12.5V4H0.5C0.223858 4 0 3.77614 0 3.5C0 3.22386 0.223858 3 0.5 3H3.5C3.5 2.20435 3.8163 1.44152 4.37891 0.878906C4.94151 0.3163 5.70435 0 6.5 0ZM2.5 12.5C2.5 12.6326 2.55277 12.7598 2.64648 12.8535L2.72266 12.916C2.80422 12.9704 2.90061 13 3 13H10C10.1326 13 10.2598 12.9473 10.3535 12.8535C10.4473 12.7598 10.5 12.6326 10.5 12.5V4H2.5V12.5ZM5 6.00195C5.27614 6.00195 5.5 6.22581 5.5 6.50195V10.5039C5.49951 10.7796 5.27584 11.0039 5 11.0039C4.72416 11.0039 4.50049 10.7796 4.5 10.5039V6.50195C4.5 6.22581 4.72386 6.00195 5 6.00195ZM8 6.00195C8.27614 6.00195 8.5 6.22581 8.5 6.50195V10.5039C8.49951 10.7796 8.27584 11.0039 8 11.0039C7.72416 11.0039 7.50049 10.7796 7.5 10.5039V6.50195C7.5 6.22581 7.72386 6.00195 8 6.00195ZM6.5 1C5.96957 1 5.46101 1.21087 5.08594 1.58594C4.71087 1.96101 4.5 2.46957 4.5 3H8.5C8.5 2.46957 8.28913 1.96101 7.91406 1.58594C7.53899 1.21087 7.03043 1 6.5 1Z" fill="#111958"/>
</svg>
