<svg width="16" height="16" viewBox="0 0 16 16" fill="none" xmlns="http://www.w3.org/2000/svg">
<path d="M8 10.5C6.62 10.5 5.5 9.38 5.5 8C5.5 6.62 6.62 5.5 8 5.5C9.38 5.5 10.5 6.62 10.5 8C10.5 9.38 9.38 10.5 8 10.5ZM8 6.5C7.17333 6.5 6.5 7.17333 6.5 8C6.5 8.82667 7.17333 9.5 8 9.5C8.82667 9.5 9.5 8.82667 9.5 8C9.5 7.17333 8.82667 6.5 8 6.5Z" fill="#111958"/>
<path d="M10.1399 14.7942C9.99992 14.7942 9.85992 14.7742 9.71992 14.7408C9.30659 14.6275 8.95992 14.3675 8.73992 14.0008L8.65992 13.8675C8.26659 13.1875 7.72659 13.1875 7.33325 13.8675L7.25992 13.9942C7.03992 14.3675 6.69325 14.6342 6.27992 14.7408C5.85992 14.8542 5.42659 14.7942 5.05992 14.5742L3.91325 13.9142C3.50659 13.6808 3.21325 13.3008 3.08659 12.8408C2.96659 12.3808 3.02659 11.9075 3.25992 11.5008C3.45325 11.1608 3.50659 10.8542 3.39325 10.6608C3.27992 10.4675 2.99325 10.3542 2.59992 10.3542C1.62659 10.3542 0.833252 9.56084 0.833252 8.58751V7.41418C0.833252 6.44084 1.62659 5.64751 2.59992 5.64751C2.99325 5.64751 3.27992 5.53418 3.39325 5.34084C3.50659 5.14751 3.45992 4.84084 3.25992 4.50084C3.02659 4.09418 2.96659 3.61418 3.08659 3.16084C3.20659 2.70084 3.49992 2.32084 3.91325 2.08751L5.06659 1.42751C5.81992 0.980842 6.81325 1.24084 7.26659 2.00751L7.34659 2.14084C7.73992 2.82084 8.27992 2.82084 8.67325 2.14084L8.74659 2.01418C9.19992 1.24084 10.1933 0.980842 10.9533 1.43418L12.0999 2.09418C12.5066 2.32751 12.7999 2.70751 12.9266 3.16751C13.0466 3.62751 12.9866 4.10084 12.7533 4.50751C12.5599 4.84751 12.5066 5.15418 12.6199 5.34751C12.7333 5.54084 13.0199 5.65418 13.4133 5.65418C14.3866 5.65418 15.1799 6.44751 15.1799 7.42084V8.59418C15.1799 9.56751 14.3866 10.3608 13.4133 10.3608C13.0199 10.3608 12.7333 10.4742 12.6199 10.6675C12.5066 10.8608 12.5533 11.1675 12.7533 11.5075C12.9866 11.9142 13.0533 12.3942 12.9266 12.8475C12.8066 13.3075 12.5133 13.6875 12.0999 13.9208L10.9466 14.5808C10.6933 14.7208 10.4199 14.7942 10.1399 14.7942ZM7.99992 12.3275C8.59325 12.3275 9.14659 12.7008 9.52659 13.3608L9.59992 13.4875C9.67992 13.6275 9.81325 13.7275 9.97325 13.7675C10.1333 13.8075 10.2933 13.7875 10.4266 13.7075L11.5799 13.0408C11.7533 12.9408 11.8866 12.7742 11.9399 12.5742C11.9933 12.3742 11.9666 12.1675 11.8666 11.9942C11.4866 11.3408 11.4399 10.6675 11.7333 10.1542C12.0266 9.64084 12.6333 9.34751 13.3933 9.34751C13.8199 9.34751 14.1599 9.00751 14.1599 8.58084V7.40751C14.1599 6.98751 13.8199 6.64084 13.3933 6.64084C12.6333 6.64084 12.0266 6.34751 11.7333 5.83418C11.4399 5.32084 11.4866 4.64751 11.8666 3.99418C11.9666 3.82084 11.9933 3.61418 11.9399 3.41418C11.8866 3.21418 11.7599 3.05418 11.5866 2.94751L10.4333 2.28751C10.1466 2.11418 9.76659 2.21418 9.59325 2.50751L9.51992 2.63418C9.13992 3.29418 8.58659 3.66751 7.99325 3.66751C7.39992 3.66751 6.84659 3.29418 6.46659 2.63418L6.39325 2.50084C6.22659 2.22084 5.85325 2.12084 5.56659 2.28751L4.41325 2.95418C4.23992 3.05418 4.10659 3.22084 4.05325 3.42084C3.99992 3.62084 4.02659 3.82751 4.12659 4.00084C4.50659 4.65418 4.55325 5.32751 4.25992 5.84084C3.96659 6.35418 3.35992 6.64751 2.59992 6.64751C2.17325 6.64751 1.83325 6.98751 1.83325 7.41418V8.58751C1.83325 9.00751 2.17325 9.35418 2.59992 9.35418C3.35992 9.35418 3.96659 9.64751 4.25992 10.1608C4.55325 10.6742 4.50659 11.3475 4.12659 12.0008C4.02659 12.1742 3.99992 12.3808 4.05325 12.5808C4.10659 12.7808 4.23325 12.9408 4.40659 13.0475L5.55992 13.7075C5.69992 13.7942 5.86659 13.8142 6.01992 13.7742C6.17992 13.7342 6.31325 13.6275 6.39992 13.4875L6.47325 13.3608C6.85325 12.7075 7.40659 12.3275 7.99992 12.3275Z" fill="#111958"/>
</svg>
