<svg width="20" height="20" viewBox="0 0 20 20" fill="none" xmlns="http://www.w3.org/2000/svg">
<g clip-path="url(#clip0_337_2786)">
<path d="M17.8711 -4.37305C21.4368 -4.3728 24.3271 -1.48174 24.3271 2.08398V17.8262C24.3271 21.3919 21.4368 24.283 17.8711 24.2832H2.12793C-1.43794 24.2832 -4.3291 21.392 -4.3291 17.8262V2.08398C-4.3291 -1.48189 -1.43794 -4.37305 2.12793 -4.37305H17.8711ZM10.002 1C4.72767 1.00016 0.446412 4.48351 0.446289 8.75488C0.446289 12.5875 3.84082 15.8022 8.43457 16.4023C8.74785 16.4739 9.16865 16.6086 9.27637 16.877C9.37487 17.1187 9.33855 17.4954 9.30273 17.7461C9.23119 18.1932 9.18689 18.4648 9.16895 18.5605C9.13311 18.8024 8.98149 19.5008 10.002 19.0713C11.0232 18.6412 15.4999 15.8385 17.5059 13.5283C18.8849 12.006 19.5566 10.4653 19.5566 8.75488C19.5565 4.48349 15.2673 1.00012 10.002 1ZM4.29199 6.54395C4.3905 6.54395 4.47168 6.62415 4.47168 6.72266V10.0361H6.29785C6.39628 10.0361 6.47741 10.1164 6.47754 10.2148V10.8955C6.47754 10.994 6.39636 11.0752 6.29785 11.0752H3.61133C3.51314 11.0748 3.43262 10.9938 3.43262 10.8955V6.72266C3.43262 6.62438 3.51314 6.54432 3.61133 6.54395H4.29199ZM7.90918 6.54395C8.00809 6.54395 8.08789 6.62374 8.08789 6.72266V10.8955C8.08789 10.9944 8.00809 11.0752 7.90918 11.0752H7.22852C7.12984 11.0749 7.0498 10.9943 7.0498 10.8955V6.72266C7.0498 6.62391 7.12984 6.54422 7.22852 6.54395H7.90918ZM9.65625 6.54395C9.65639 6.54951 9.65946 6.55261 9.66504 6.55273H9.67383L9.68262 6.56152H9.70117V6.57031C9.70683 6.57043 9.70989 6.5734 9.70996 6.5791H9.71875C9.71875 6.5791 9.72187 6.58222 9.72754 6.58789C9.73341 6.59376 9.73925 6.60056 9.74512 6.60645C9.75106 6.61239 9.75486 6.61808 9.75488 6.62402L11.6621 9.19434V6.72266C11.6621 6.62441 11.7514 6.54437 11.8496 6.54395H12.5215C12.6289 6.54395 12.71 6.62415 12.71 6.72266V10.8955C12.71 10.994 12.6289 11.0752 12.5215 11.0752H11.8496C11.8321 11.0751 11.8174 11.0713 11.8057 11.0654H11.7871V11.0566H11.7695L11.752 11.0391H11.7422C11.7245 11.0272 11.7101 11.0118 11.6982 10.9941L9.79004 8.41504V10.8955C9.79004 10.9939 9.70989 11.0751 9.60254 11.0752H8.93066C8.83231 11.075 8.74219 10.9939 8.74219 10.8955V6.72266C8.74219 6.62428 8.83231 6.54415 8.93066 6.54395H9.65625ZM16.2285 6.54395C16.327 6.54397 16.4072 6.62416 16.4072 6.72266V7.40332C16.4072 7.50175 16.327 7.58201 16.2285 7.58203H14.4014V8.29004H16.2285C16.327 8.29006 16.4072 8.3703 16.4072 8.46875V9.14941C16.4072 9.24791 16.327 9.3281 16.2285 9.32812H14.4014V10.0361H16.2285C16.3269 10.0362 16.4071 10.1165 16.4072 10.2148V10.8955C16.4072 10.994 16.327 11.0752 16.2285 11.0752H13.542C13.4437 11.075 13.3633 10.9939 13.3633 10.8955V6.72266C13.3633 6.62427 13.4437 6.54414 13.542 6.54395H16.2285Z" fill="white"/>
</g>
<defs>
<clipPath id="clip0_337_2786">
<rect width="20" height="20" fill="white"/>
</clipPath>
</defs>
</svg>
