<svg width="169" height="57" viewBox="0 0 169 57" fill="none" xmlns="http://www.w3.org/2000/svg">
<path d="M70.3794 13.164C70.0272 12.7239 69.5947 12.385 69.0818 12.1507C68.5689 11.9164 67.9757 11.796 67.2991 11.796C66.6225 11.796 66.0015 11.929 65.4268 12.1982C64.8522 12.4642 64.3548 12.8379 63.9315 13.316C63.5082 13.7942 63.1807 14.3642 62.9428 15.0229C62.7049 15.6815 62.5875 16.3972 62.5875 17.1667C62.5875 17.9362 62.7049 18.6709 62.9428 19.3232C63.1807 19.9755 63.5051 20.5392 63.9191 21.0205C64.3331 21.4987 64.8182 21.8724 65.3774 22.1384C65.9366 22.4044 66.5391 22.5374 67.1817 22.5374C67.917 22.5374 68.5689 22.379 69.1343 22.0655C69.6997 21.752 70.1693 21.3119 70.537 20.745L73.5246 23.0314C72.8357 24.0225 71.9613 24.7509 70.9047 25.2227C69.848 25.6945 68.7574 25.9289 67.639 25.9289C66.3661 25.9289 65.1951 25.723 64.123 25.3177C63.051 24.9092 62.1241 24.3234 61.3424 23.5634C60.5608 22.8002 59.9521 21.8787 59.5134 20.7957C59.0778 19.7127 58.8584 18.503 58.8584 17.1667C58.8584 15.8304 59.0778 14.6207 59.5134 13.5377C59.949 12.4547 60.5608 11.53 61.3424 10.77C62.1241 10.0069 63.051 9.4242 64.123 9.0157C65.1951 8.6072 66.3692 8.40137 67.639 8.40137C68.0993 8.40137 68.5782 8.4457 69.0756 8.5312C69.5731 8.6167 70.0643 8.75604 70.5463 8.94287C71.0283 9.13287 71.4917 9.38304 71.9366 9.69653C72.3815 10.01 72.78 10.3964 73.1323 10.8524L70.3733 13.1609L70.3794 13.164Z" fill="white"/>
<path d="M75.5264 17.1706C75.5264 15.8343 75.7457 14.6246 76.1814 13.5416C76.617 12.4586 77.2287 11.5339 78.0104 10.7739C78.7921 10.0108 79.7189 9.42811 80.791 9.01961C81.8631 8.61111 83.0371 8.40527 84.307 8.40527C85.5768 8.40527 86.7508 8.61111 87.8229 9.01961C88.895 9.42811 89.8218 10.0139 90.6035 10.7739C91.3852 11.5371 91.9938 12.4586 92.4295 13.5416C92.8651 14.6246 93.0845 15.8343 93.0845 17.1706C93.0845 18.5069 92.8651 19.7166 92.4295 20.7996C91.9938 21.8826 91.3852 22.8073 90.6035 23.5673C89.8218 24.3304 88.895 24.9131 87.8229 25.3216C86.7508 25.7301 85.5768 25.9328 84.307 25.9328C83.0371 25.9328 81.8631 25.7269 80.791 25.3216C79.7189 24.9131 78.7921 24.3273 78.0104 23.5673C77.2287 22.8041 76.6201 21.8826 76.1814 20.7996C75.7457 19.7166 75.5264 18.5069 75.5264 17.1706ZM79.2524 17.1706C79.2524 17.9559 79.3698 18.6748 79.6077 19.3271C79.8456 19.9794 80.1855 20.5431 80.6303 21.0244C81.0752 21.5026 81.6067 21.8763 82.2277 22.1423C82.8487 22.4083 83.5407 22.5413 84.307 22.5413C85.0732 22.5413 85.7652 22.4083 86.3862 22.1423C87.0072 21.8763 87.5387 21.5026 87.9836 21.0244C88.4285 20.5463 88.7683 19.9794 89.0062 19.3271C89.2441 18.6748 89.3615 17.9559 89.3615 17.1706C89.3615 16.3853 89.2441 15.6854 89.0062 15.0268C88.7683 14.3681 88.4285 13.7981 87.9836 13.3199C87.5387 12.8418 87.0072 12.4681 86.3862 12.2021C85.7652 11.9361 85.0732 11.7999 84.307 11.7999C83.5407 11.7999 82.8487 11.9329 82.2277 12.2021C81.6067 12.4681 81.0752 12.8418 80.6303 13.3199C80.1855 13.7981 79.8456 14.3681 79.6077 15.0268C79.3698 15.6854 79.2524 16.4011 79.2524 17.1706Z" fill="white"/>
<path d="M107.093 13.164C106.741 12.7239 106.308 12.385 105.796 12.1507C105.283 11.9164 104.689 11.796 104.013 11.796C103.336 11.796 102.715 11.929 102.141 12.1982C101.566 12.4642 101.068 12.8379 100.645 13.316C100.225 13.7942 99.8944 14.3642 99.6565 15.0229C99.4186 15.6815 99.3012 16.3972 99.3012 17.1667C99.3012 17.9362 99.4186 18.6709 99.6565 19.3232C99.8944 19.9755 100.219 20.5392 100.633 21.0205C101.047 21.4987 101.532 21.8724 102.094 22.1384C102.653 22.4044 103.256 22.5374 103.899 22.5374C104.634 22.5374 105.286 22.379 105.851 22.0655C106.417 21.752 106.886 21.3119 107.254 20.745L110.241 23.0314C109.552 24.0225 108.678 24.7509 107.621 25.2227C106.565 25.6945 105.474 25.9289 104.356 25.9289C103.083 25.9289 101.912 25.723 100.84 25.3177C99.7677 24.9092 98.8409 24.3234 98.0592 23.5634C97.2775 22.8002 96.6689 21.8787 96.2302 20.7957C95.7946 19.7127 95.5752 18.503 95.5752 17.1667C95.5752 15.8304 95.7946 14.6207 96.2302 13.5377C96.6658 12.4547 97.2775 11.53 98.0592 10.77C98.8409 10.0069 99.7677 9.4242 100.84 9.0157C101.912 8.6072 103.086 8.40137 104.356 8.40137C104.816 8.40137 105.295 8.4457 105.792 8.5312C106.29 8.6167 106.781 8.75604 107.263 8.94287C107.745 9.1297 108.208 9.38304 108.653 9.69653C109.098 10.01 109.497 10.3964 109.849 10.8524L107.09 13.1609L107.093 13.164Z" fill="white"/>
<path d="M112.24 17.1706C112.24 15.8343 112.46 14.6246 112.895 13.5416C113.331 12.4586 113.943 11.5339 114.724 10.7739C115.506 10.0108 116.433 9.42811 117.505 9.01961C118.577 8.61111 119.751 8.40527 121.021 8.40527C122.291 8.40527 123.465 8.61111 124.537 9.01961C125.609 9.42811 126.536 10.0139 127.317 10.7739C128.099 11.5371 128.708 12.4586 129.146 13.5416C129.582 14.6246 129.801 15.8343 129.801 17.1706C129.801 18.5069 129.582 19.7166 129.146 20.7996C128.711 21.8826 128.099 22.8073 127.317 23.5673C126.536 24.3304 125.609 24.9131 124.537 25.3216C123.465 25.7301 122.291 25.9328 121.021 25.9328C119.751 25.9328 118.577 25.7269 117.505 25.3216C116.433 24.9131 115.506 24.3273 114.724 23.5673C113.943 22.8041 113.334 21.8826 112.895 20.7996C112.46 19.7166 112.24 18.5069 112.24 17.1706ZM115.966 17.1706C115.966 17.9559 116.084 18.6748 116.322 19.3271C116.559 19.9794 116.899 20.5431 117.344 21.0244C117.789 21.5026 118.321 21.8763 118.942 22.1423C119.563 22.4083 120.255 22.5413 121.021 22.5413C121.787 22.5413 122.479 22.4083 123.1 22.1423C123.721 21.8763 124.253 21.5026 124.697 21.0244C125.142 20.5463 125.482 19.9794 125.72 19.3271C125.958 18.6748 126.075 17.9559 126.075 17.1706C126.075 16.3853 125.958 15.6854 125.72 15.0268C125.482 14.3681 125.142 13.7981 124.697 13.3199C124.253 12.8418 123.721 12.4681 123.1 12.2021C122.479 11.9361 121.787 11.7999 121.021 11.7999C120.255 11.7999 119.559 11.9329 118.942 12.2021C118.321 12.4681 117.789 12.8418 117.344 13.3199C116.899 13.7981 116.559 14.3681 116.322 15.0268C116.084 15.6854 115.966 16.4011 115.966 17.1706Z" fill="white"/>
<path d="M70.3794 36.9175C70.0272 36.4773 69.5947 36.1385 69.0818 35.9041C68.5689 35.6698 67.9757 35.5495 67.2991 35.5495C66.6225 35.5495 66.0015 35.6825 65.4268 35.9485C64.8522 36.2145 64.3548 36.5881 63.9315 37.0695C63.5082 37.5476 63.1807 38.1176 62.9428 38.7763C62.7049 39.435 62.5875 40.1506 62.5875 40.9201C62.5875 41.6896 62.7049 42.4243 62.9428 43.0766C63.1807 43.729 63.5051 44.2926 63.9191 44.774C64.3331 45.2521 64.8182 45.6258 65.3774 45.8918C65.9366 46.1578 66.5391 46.294 67.1817 46.294C67.917 46.294 68.5689 46.1356 69.1343 45.8221C69.6997 45.5086 70.1693 45.0685 70.537 44.5016L73.5246 46.788C72.8357 47.776 71.9613 48.5075 70.9047 48.9793C69.848 49.4511 68.7574 49.6855 67.639 49.6855C66.3661 49.6855 65.1951 49.4828 64.123 49.0743C63.051 48.6658 62.1241 48.08 61.3424 47.32C60.5608 46.5568 59.9521 45.6353 59.5134 44.5523C59.0778 43.4693 58.8584 42.2596 58.8584 40.9233C58.8584 39.587 59.0778 38.3773 59.5134 37.2943C59.949 36.2113 60.5608 35.2866 61.3424 34.5266C62.1241 33.7635 63.051 33.1808 64.123 32.7723C65.1951 32.3638 66.3692 32.1611 67.639 32.1611C68.0993 32.1611 68.5782 32.2055 69.0756 32.291C69.5731 32.3765 70.0643 32.5158 70.5463 32.7026C71.0283 32.8895 71.4917 33.1428 71.9366 33.4563C72.3815 33.7698 72.78 34.1561 73.1323 34.6121L70.3733 36.9206L70.3794 36.9175Z" fill="white"/>
<path d="M81.7586 32.582H84.7246L91.8059 49.264H87.7586L86.3559 45.73H80.0346L78.6783 49.264H74.7236L81.7586 32.582ZM83.1366 37.4365L81.1592 42.6204H85.1355L83.1366 37.4365Z" fill="white"/>
<path d="M94.3545 32.582H100.654C101.482 32.582 102.267 32.6644 103.011 32.829C103.756 32.9937 104.405 33.2692 104.964 33.6524C105.523 34.0355 105.968 34.5549 106.299 35.2072C106.629 35.8595 106.793 36.6734 106.793 37.6455C106.793 38.8235 106.493 39.8242 105.897 40.6507C105.301 41.4772 104.427 41.9965 103.277 42.2182L107.414 49.264H103.117L99.7149 42.595H97.9446V49.264H94.3576V32.582H94.3545ZM97.9415 39.4854H100.058C100.379 39.4854 100.722 39.4727 101.081 39.4505C101.442 39.4284 101.766 39.3555 102.057 39.2384C102.347 39.1212 102.588 38.9375 102.78 38.6842C102.971 38.434 103.067 38.0794 103.067 37.6234C103.067 37.199 102.984 36.8602 102.814 36.61C102.644 36.3599 102.431 36.1667 102.171 36.0337C101.912 35.9007 101.612 35.8089 101.275 35.7614C100.938 35.7139 100.608 35.6917 100.286 35.6917H97.9415V39.4854Z" fill="white"/>
<path d="M111.229 32.5825H122.287V35.974H114.816V39.0837H121.873V42.4752H114.816V45.8667H122.701V49.2582H111.229V32.5762V32.5825Z" fill="white"/>
<path d="M127.552 32.5825H138.609V35.974H131.139V39.0837H138.195V42.4752H131.139V45.8667H139.023V49.2582H127.552V32.5762V32.5825Z" fill="white"/>
<path d="M142.814 32.582H149.114C149.942 32.582 150.727 32.6644 151.471 32.829C152.216 32.9937 152.865 33.2692 153.424 33.6524C153.983 34.0355 154.428 34.5549 154.759 35.2072C155.089 35.8595 155.253 36.6734 155.253 37.6455C155.253 38.8235 154.953 39.8242 154.357 40.6507C153.761 41.4772 152.886 41.9965 151.737 42.2182L155.874 49.264H151.576L148.175 42.595H146.405V49.264H142.818V32.582H142.814ZM146.401 39.4854H148.518C148.839 39.4854 149.182 39.4727 149.54 39.4505C149.902 39.4284 150.226 39.3555 150.517 39.2384C150.807 39.1212 151.048 38.9375 151.24 38.6842C151.431 38.434 151.527 38.0794 151.527 37.6234C151.527 37.199 151.444 36.8602 151.274 36.61C151.104 36.3599 150.891 36.1667 150.631 36.0337C150.372 35.9007 150.072 35.8089 149.735 35.7614C149.398 35.7139 149.068 35.6917 148.746 35.6917H146.401V39.4854Z" fill="white"/>
<path d="M27.931 40.0724C21.7611 40.0724 16.7591 34.9456 16.7591 28.6217C16.7591 26.8769 17.1391 25.2239 17.8219 23.7451L10.3544 18.5391C8.72 21.5189 7.79004 24.9611 7.79004 28.6217C7.79004 40.0217 16.8085 49.2652 27.931 49.2652C34.2276 49.2652 39.8444 46.3044 43.5396 41.6716L36.072 36.4656C34.0329 38.6854 31.138 40.0724 27.931 40.0724Z" fill="white"/>
<path d="M27.9316 7.97754C21.6382 7.97754 16.0182 10.9384 12.3262 15.5712L19.7937 20.7772C21.8297 18.5574 24.7247 17.1704 27.9316 17.1704C34.1015 17.1704 39.1036 22.2972 39.1036 28.621C39.1036 30.3627 38.7235 32.0157 38.0407 33.4945L45.5083 38.7005C47.1426 35.7207 48.0726 32.2817 48.0726 28.621C48.0726 17.221 39.0572 7.97754 27.9316 7.97754Z" fill="white"/>
<path d="M27.9307 40.0715C31.1377 40.0715 34.0326 38.6845 36.0718 36.4646L17.8216 23.7441C17.1388 25.223 16.7588 26.876 16.7588 28.6208C16.7588 34.9446 21.7608 40.0715 27.9307 40.0715Z" fill="white" fill-opacity="0.8"/>
</svg>
