<svg width="121" height="41" viewBox="0 0 121 41" fill="none" xmlns="http://www.w3.org/2000/svg">
<path d="M50.3897 9.46923C50.1375 9.15262 49.8278 8.9089 49.4606 8.74035C49.0934 8.57179 48.6687 8.48523 48.1842 8.48523C47.6998 8.48523 47.2552 8.5809 46.8437 8.77451C46.4323 8.96585 46.0761 9.23462 45.7731 9.57857C45.47 9.92251 45.2355 10.3325 45.0652 10.8063C44.8949 11.2801 44.8108 11.7948 44.8108 12.3483C44.8108 12.9018 44.8949 13.4303 45.0652 13.8995C45.2355 14.3687 45.4678 14.7742 45.7642 15.1204C46.0607 15.4643 46.4079 15.7331 46.8083 15.9245C47.2087 16.1158 47.6401 16.2115 48.1002 16.2115C48.6266 16.2115 49.0934 16.0976 49.4982 15.8721C49.903 15.6466 50.2392 15.33 50.5025 14.9222L52.6415 16.5668C52.1483 17.2797 51.5222 17.8036 50.7657 18.143C50.0092 18.4824 49.2283 18.651 48.4276 18.651C47.5162 18.651 46.6778 18.5029 45.9102 18.2113C45.1426 17.9175 44.479 17.4961 43.9194 16.9495C43.3597 16.4005 42.9239 15.7377 42.6098 14.9587C42.2979 14.1797 42.1409 13.3096 42.1409 12.3483C42.1409 11.3871 42.2979 10.517 42.6098 9.73801C42.9217 8.95901 43.3597 8.2939 43.9194 7.74724C44.479 7.19829 45.1426 6.77918 45.9102 6.48535C46.6778 6.19151 47.5184 6.04346 48.4276 6.04346C48.7572 6.04346 49.1 6.07535 49.4562 6.13685C49.8123 6.19835 50.164 6.29857 50.5091 6.43296C50.8542 6.56963 51.186 6.74957 51.5045 6.97507C51.8231 7.20057 52.1084 7.47846 52.3606 7.80646L50.3852 9.46696L50.3897 9.46923Z" fill="#111958"/>
<path d="M54.075 12.3508C54.075 11.3896 54.232 10.5195 54.5439 9.74045C54.8558 8.96145 55.2938 8.29634 55.8535 7.74968C56.4131 7.20073 57.0767 6.78162 57.8443 6.48779C58.6119 6.19395 59.4525 6.0459 60.3616 6.0459C61.2708 6.0459 62.1114 6.19395 62.879 6.48779C63.6466 6.78162 64.3102 7.20301 64.8698 7.74968C65.4295 8.29862 65.8653 8.96145 66.1772 9.74045C66.4891 10.5195 66.6461 11.3896 66.6461 12.3508C66.6461 13.312 66.4891 14.1821 66.1772 14.9611C65.8653 15.7401 65.4295 16.4052 64.8698 16.9519C64.3102 17.5008 63.6466 17.92 62.879 18.2138C62.1114 18.5076 61.2708 18.6534 60.3616 18.6534C59.4525 18.6534 58.6119 18.5053 57.8443 18.2138C57.0767 17.92 56.4131 17.4986 55.8535 16.9519C55.2938 16.403 54.858 15.7401 54.5439 14.9611C54.232 14.1821 54.075 13.312 54.075 12.3508ZM56.7427 12.3508C56.7427 12.9157 56.8268 13.4327 56.9971 13.902C57.1674 14.3712 57.4107 14.7766 57.7293 15.1228C58.0478 15.4668 58.4283 15.7356 58.8729 15.9269C59.3175 16.1182 59.8131 16.2139 60.3616 16.2139C60.9102 16.2139 61.4057 16.1182 61.8504 15.9269C62.295 15.7356 62.6755 15.4668 62.994 15.1228C63.3125 14.7789 63.5559 14.3712 63.7262 13.902C63.8965 13.4327 63.9806 12.9157 63.9806 12.3508C63.9806 11.7859 63.8965 11.2825 63.7262 10.8087C63.5559 10.335 63.3125 9.92495 62.994 9.58101C62.6755 9.23707 62.295 8.96829 61.8504 8.77695C61.4057 8.58562 60.9102 8.48768 60.3616 8.48768C59.8131 8.48768 59.3175 8.58334 58.8729 8.77695C58.4283 8.96829 58.0478 9.23707 57.7293 9.58101C57.4107 9.92495 57.1674 10.335 56.9971 10.8087C56.8268 11.2825 56.7427 11.7973 56.7427 12.3508Z" fill="#111958"/>
<path d="M76.6755 9.46923C76.4234 9.15262 76.1137 8.9089 75.7465 8.74035C75.3793 8.57179 74.9545 8.48523 74.4701 8.48523C73.9857 8.48523 73.541 8.5809 73.1296 8.77451C72.7182 8.96585 72.362 9.23462 72.0589 9.57857C71.7581 9.92251 71.5214 10.3325 71.3511 10.8063C71.1808 11.2801 71.0967 11.7948 71.0967 12.3483C71.0967 12.9018 71.1808 13.4303 71.3511 13.8995C71.5214 14.3687 71.7537 14.7742 72.0501 15.1204C72.3465 15.4643 72.6938 15.7331 73.0964 15.9245C73.4968 16.1158 73.9282 16.2115 74.3883 16.2115C74.9147 16.2115 75.3815 16.0976 75.7863 15.8721C76.1911 15.6466 76.5273 15.33 76.7906 14.9222L78.9296 16.5668C78.4363 17.2797 77.8103 17.8036 77.0538 18.143C76.2973 18.4824 75.5164 18.651 74.7156 18.651C73.8043 18.651 72.9659 18.5029 72.1983 18.2113C71.4307 17.9175 70.7671 17.4961 70.2075 16.9495C69.6478 16.4005 69.212 15.7377 68.8979 14.9587C68.586 14.1797 68.429 13.3096 68.429 12.3483C68.429 11.3871 68.586 10.517 68.8979 9.73801C69.2098 8.95901 69.6478 8.2939 70.2075 7.74724C70.7671 7.19829 71.4307 6.77918 72.1983 6.48535C72.9659 6.19151 73.8065 6.04346 74.7156 6.04346C75.0452 6.04346 75.3881 6.07535 75.7443 6.13685C76.1004 6.19835 76.4521 6.29857 76.7972 6.43296C77.1423 6.56735 77.4741 6.74957 77.7926 6.97507C78.1112 7.20057 78.3965 7.47846 78.6487 7.80646L76.6733 9.46696L76.6755 9.46923Z" fill="#111958"/>
<path d="M80.3611 12.3508C80.3611 11.3896 80.5181 10.5195 80.83 9.74045C81.1419 8.96145 81.5799 8.29634 82.1396 7.74968C82.6992 7.20073 83.3629 6.78162 84.1304 6.48779C84.898 6.19395 85.7386 6.0459 86.6478 6.0459C87.5569 6.0459 88.3975 6.19395 89.1651 6.48779C89.9327 6.78162 90.5963 7.20301 91.156 7.74968C91.7156 8.29862 92.1514 8.96145 92.4655 9.74045C92.7774 10.5195 92.9345 11.3896 92.9345 12.3508C92.9345 13.312 92.7774 14.1821 92.4655 14.9611C92.1536 15.7401 91.7156 16.4052 91.156 16.9519C90.5963 17.5008 89.9327 17.92 89.1651 18.2138C88.3975 18.5076 87.5569 18.6534 86.6478 18.6534C85.7386 18.6534 84.898 18.5053 84.1304 18.2138C83.3629 17.92 82.6992 17.4986 82.1396 16.9519C81.5799 16.403 81.1442 15.7401 80.83 14.9611C80.5181 14.1821 80.3611 13.312 80.3611 12.3508ZM83.0288 12.3508C83.0288 12.9157 83.1129 13.4327 83.2832 13.902C83.4536 14.3712 83.6969 14.7766 84.0154 15.1228C84.334 15.4668 84.7144 15.7356 85.159 15.9269C85.6037 16.1182 86.0992 16.2139 86.6478 16.2139C87.1964 16.2139 87.6919 16.1182 88.1365 15.9269C88.5811 15.7356 88.9616 15.4668 89.2801 15.1228C89.5987 14.7789 89.842 14.3712 90.0123 13.902C90.1827 13.4327 90.2667 12.9157 90.2667 12.3508C90.2667 11.7859 90.1827 11.2825 90.0123 10.8087C89.842 10.335 89.5987 9.92495 89.2801 9.58101C88.9616 9.23707 88.5811 8.96829 88.1365 8.77695C87.6919 8.58562 87.1964 8.48768 86.6478 8.48768C86.0992 8.48768 85.6015 8.58334 85.159 8.77695C84.7144 8.96829 84.334 9.23707 84.0154 9.58101C83.6969 9.92495 83.4536 10.335 83.2832 10.8087C83.1129 11.2825 83.0288 11.7973 83.0288 12.3508Z" fill="#111958"/>
<path d="M50.3897 26.555C50.1375 26.2384 49.8278 25.9947 49.4606 25.8261C49.0934 25.6576 48.6687 25.571 48.1842 25.571C47.6998 25.571 47.2552 25.6667 46.8437 25.858C46.4323 26.0493 46.0761 26.3181 45.7731 26.6643C45.47 27.0083 45.2355 27.4183 45.0652 27.8921C44.8949 28.3658 44.8108 28.8806 44.8108 29.4341C44.8108 29.9876 44.8949 30.5161 45.0652 30.9853C45.2355 31.4545 45.4678 31.86 45.7642 32.2062C46.0607 32.5501 46.4079 32.8189 46.8083 33.0102C47.2087 33.2016 47.6401 33.2995 48.1002 33.2995C48.6266 33.2995 49.0934 33.1856 49.4982 32.9601C49.903 32.7346 50.2392 32.418 50.5025 32.0103L52.6415 33.6548C52.1483 34.3655 51.5222 34.8917 50.7657 35.2311C50.0092 35.5705 49.2283 35.739 48.4276 35.739C47.5162 35.739 46.6778 35.5932 45.9102 35.2994C45.1426 35.0056 44.479 34.5842 43.9194 34.0375C43.3597 33.4886 42.9239 32.8257 42.6098 32.0467C42.2979 31.2677 42.1409 30.3976 42.1409 29.4364C42.1409 28.4752 42.2979 27.6051 42.6098 26.8261C42.9217 26.0471 43.3597 25.382 43.9194 24.8353C44.479 24.2863 45.1426 23.8672 45.9102 23.5734C46.6778 23.2796 47.5184 23.1338 48.4276 23.1338C48.7572 23.1338 49.1 23.1657 49.4562 23.2272C49.8123 23.2887 50.164 23.3889 50.5091 23.5233C50.8542 23.6577 51.186 23.8399 51.5045 24.0654C51.8231 24.2909 52.1084 24.5688 52.3606 24.8968L50.3852 26.5573L50.3897 26.555Z" fill="#111958"/>
<path d="M58.5366 23.4365H60.6602L65.7303 35.4359H62.8325L61.8282 32.8939H57.3023L56.3312 35.4359H53.4998L58.5366 23.4365ZM59.5232 26.9284L58.1075 30.6571H60.9544L59.5232 26.9284Z" fill="#111958"/>
<path d="M67.5552 23.4365H72.0656C72.6584 23.4365 73.2203 23.4957 73.7534 23.6142C74.2865 23.7326 74.751 23.9308 75.1514 24.2064C75.5518 24.482 75.8703 24.8556 76.107 25.3248C76.3437 25.794 76.461 26.3794 76.461 27.0787C76.461 27.926 76.2464 28.6458 75.8194 29.2403C75.3925 29.8348 74.7665 30.2084 73.9436 30.3678L76.9056 35.4359H73.8286L71.3931 30.6389H70.1256V35.4359H67.5574V23.4365H67.5552ZM70.1234 28.4021H71.6386C71.8687 28.4021 72.1142 28.393 72.3708 28.377C72.6297 28.3611 72.8619 28.3087 73.0699 28.2244C73.2778 28.1401 73.4503 28.008 73.5875 27.8258C73.7246 27.6459 73.7932 27.3907 73.7932 27.0627C73.7932 26.7575 73.7335 26.5138 73.6118 26.3339C73.4901 26.1539 73.3375 26.015 73.1517 25.9193C72.9659 25.8236 72.7513 25.7576 72.5102 25.7234C72.2691 25.6892 72.0324 25.6733 71.8023 25.6733H70.1234V28.4021Z" fill="#111958"/>
<path d="M79.6377 23.4367H87.5547V25.8762H82.2059V28.113H87.2583V30.5525H82.2059V32.992H87.8511V35.4315H79.6377V23.4321V23.4367Z" fill="#111958"/>
<path d="M91.324 23.4367H99.241V25.8762H93.8922V28.113H98.9445V30.5525H93.8922V32.992H99.5374V35.4315H91.324V23.4321V23.4367Z" fill="#111958"/>
<path d="M102.252 23.4365H106.762C107.355 23.4365 107.917 23.4957 108.45 23.6142C108.983 23.7326 109.448 23.9308 109.848 24.2064C110.248 24.482 110.567 24.8556 110.804 25.3248C111.04 25.794 111.157 26.3794 111.157 27.0787C111.157 27.926 110.943 28.6458 110.516 29.2403C110.089 29.8348 109.463 30.2084 108.64 30.3678L111.602 35.4359H108.525L106.09 30.6389H104.822V35.4359H102.254V23.4365H102.252ZM104.82 28.4021H106.335C106.565 28.4021 106.811 28.393 107.067 28.377C107.326 28.3611 107.558 28.3087 107.766 28.2244C107.974 28.1401 108.147 28.008 108.284 27.8258C108.421 27.6459 108.49 27.3907 108.49 27.0627C108.49 26.7575 108.43 26.5138 108.308 26.3339C108.187 26.1539 108.034 26.015 107.848 25.9193C107.662 25.8236 107.448 25.7576 107.207 25.7234C106.966 25.6892 106.729 25.6733 106.499 25.6733H104.82V28.4021Z" fill="#111958"/>
<path d="M19.9981 28.8238C15.5806 28.8238 11.9993 25.1361 11.9993 20.5874C11.9993 19.3323 12.2713 18.1434 12.7602 17.0796L7.41365 13.335C6.24347 15.4783 5.57764 17.9543 5.57764 20.5874C5.57764 28.7874 12.0347 35.4362 19.9981 35.4362C24.5063 35.4362 28.5278 33.3065 31.1734 29.9741L25.8269 26.2295C24.3669 27.8262 22.2942 28.8238 19.9981 28.8238Z" fill="#111958"/>
<path d="M19.9981 5.73828C15.4921 5.73828 11.4684 7.868 8.82495 11.2004L14.1715 14.9451C15.6293 13.3483 17.702 12.3507 19.9981 12.3507C24.4156 12.3507 27.9969 16.0384 27.9969 20.5871C27.9969 21.8399 27.7248 23.0289 27.236 24.0926L32.5825 27.8373C33.7527 25.6939 34.4186 23.2202 34.4186 20.5871C34.4186 12.3871 27.9637 5.73828 19.9981 5.73828Z" fill="#FFD028"/>
<path d="M19.9981 28.8233C22.2942 28.8233 24.3669 27.8257 25.8269 26.2289L12.7602 17.0791C12.2714 18.1428 11.9993 19.3318 11.9993 20.5869C11.9993 25.1356 15.5806 28.8233 19.9981 28.8233Z" fill="#FF5252"/>
</svg>
